<svg width="24" height="24" viewBox="0 0 24 24" fill="none" xmlns="http://www.w3.org/2000/svg">
<g clip-path="url(#clip0_8_1109)">
<path d="M13.9779 7.34063C11.5076 6.13594 8.61074 6.84844 6.93731 8.87813L9.52481 11.4656C9.82012 11.7609 9.82012 12.2344 9.52481 12.525C9.37949 12.6703 9.18731 12.7453 8.99512 12.7453C8.80293 12.7453 8.61074 12.6703 8.46543 12.525L6.11231 10.1719L0.107619 22.4859C-0.0283185 22.7672 -0.0376935 23.1094 0.107619 23.4094C0.360744 23.9297 0.993556 24.1453 1.51387 23.8922L7.77637 20.8359L5.47012 18.5297C5.17481 18.2391 5.17481 17.7609 5.47012 17.4703C5.76543 17.1797 6.23887 17.1797 6.52949 17.4703L9.20137 20.1422L13.9826 17.8078C15.1076 17.2594 16.0686 16.3406 16.6592 15.1313C18.0701 12.2391 16.8701 8.75156 13.9779 7.34063ZM18.2951 5.70469C19.2092 3.79688 18.7357 1.54219 16.8748 0C14.517 1.95469 14.4139 5.03906 16.5045 7.12031L16.8795 7.49531C18.9607 9.58594 22.0498 9.48281 23.9998 7.125C22.4576 5.26406 20.2029 4.79063 18.2951 5.70469Z" fill="#004C45"/>
</g>
<defs>
<clipPath id="clip0_8_1109">
<rect width="24" height="24" fill="white"/>
</clipPath>
</defs>
</svg>
