<svg width="24" height="24" viewBox="0 0 24 24" fill="none" xmlns="http://www.w3.org/2000/svg">
<g clip-path="url(#clip0_8_1111)">
<path d="M13.6292 5.33333C9.88042 5.33333 6.60667 7.61542 4.78458 9.56792L1.14583 6.81583C0.640415 6.43333 -0.114168 6.84083 0.0149988 7.42667L1.0225 12L0.0145821 16.5738C-0.114585 17.1596 0.639999 17.5667 1.14542 17.1846L4.78417 14.4325C6.60625 16.3846 9.88042 18.6667 13.6292 18.6667C19.3567 18.6667 24 13.3333 24 12C24 10.6667 19.3567 5.33333 13.6292 5.33333ZM17.2721 13C16.72 13 16.2721 12.5521 16.2721 12C16.2721 11.4475 16.72 11 17.2721 11C17.8246 11 18.2721 11.4475 18.2721 12C18.2721 12.5521 17.8242 13 17.2721 13Z" fill="#004C45"/>
</g>
<defs>
<clipPath id="clip0_8_1111">
<rect width="24" height="24" fill="white"/>
</clipPath>
</defs>
</svg>
