<svg width="960" height="808" viewBox="0 0 960 808" fill="none" xmlns="http://www.w3.org/2000/svg">
<path d="M113.5 243C43.8027 156.291 -9.99999 21 3.99996 2C29.5 2 116.046 57.4857 202.5 195C301.103 179.501 348.415 200.567 431.5 243C547.416 187.587 779.359 175.423 770 203.5C760.5 232 628.357 297.436 500 345.5C509.718 449.547 514.784 506.561 510 560.5H67.5C44.6164 519.647 26.6538 428.5 31.5 410.5C35 397.5 46.303 373.495 67.5 345.5C83.9151 287.891 94.4335 270.518 113.5 243Z" fill="#F8D376"/>
<path d="M49.5001 144C10.6024 64.2814 -6.86848 19.3243 3.50013 1.00019C20.5 -5.5 56.2333 23.246 85.5001 51.5001C60.8969 59.49 53.6353 81.3989 49.5001 144Z" fill="#004C45"/>
<path d="M621.5 295.5C665.334 236.138 675.715 212.944 668.5 190C744.05 187.586 769.784 189.481 771 205C769.259 221.875 731.915 243.702 621.5 295.5Z" fill="#004C45"/>
<ellipse cx="138.18" cy="341.902" rx="22.5293" ry="24.308" transform="rotate(10.7976 138.18 341.902)" fill="#172D2D"/>
<ellipse cx="144.386" cy="334.989" rx="8.24317" ry="8.89395" transform="rotate(10.7976 144.386 334.989)" fill="white"/>
<ellipse cx="144.386" cy="334.989" rx="8.24317" ry="8.89395" transform="rotate(10.7976 144.386 334.989)" fill="white"/>
<ellipse cx="326.504" cy="378.967" rx="24.0657" ry="25.9656" transform="rotate(10.7976 326.504 378.967)" fill="#172D2D"/>
<ellipse cx="334.999" cy="370.281" rx="7.4092" ry="7.99414" transform="rotate(10.7976 334.999 370.281)" fill="white"/>
<ellipse cx="334.999" cy="370.281" rx="7.4092" ry="7.99414" transform="rotate(10.7976 334.999 370.281)" fill="white"/>
<path d="M193.786 397.218C192.264 398.164 190.258 397.574 189.491 395.955L184.006 384.386C182.951 382.159 184.882 379.679 187.3 380.158L205.571 383.778C208.241 384.307 208.884 387.831 206.572 389.268L193.786 397.218Z" fill="#004C45"/>
<path d="M561 597C561 597 530.13 599.988 509 597L514 804H572L561 715.5C605.364 733.075 632.539 732.782 680.5 734.5C682.488 668.224 681.488 631.774 668.5 570.5C784.28 558.434 847.753 563.224 960 579.5L955 318C796.964 326.321 706.35 342.825 539 406C550.519 479.788 556.622 521.253 561 597Z" fill="#ECC86C"/>
<mask id="mask0_85_12" style="mask-type:alpha" maskUnits="userSpaceOnUse" x="509" y="318" width="451" height="486">
<path d="M561 597C561 597 530.13 599.988 509 597L514 804H572L561 715.5C605.364 733.075 632.539 732.782 680.5 734.5C682.488 668.224 681.488 631.774 668.5 570.5C784.28 558.434 847.753 563.224 960 579.5L955 318C796.964 326.321 706.35 342.825 539 406C550.519 479.788 556.622 521.253 561 597Z" fill="#ECC86C"/>
</mask>
<g mask="url(#mask0_85_12)">
<path d="M542 755L520.5 736.5L517 734V824.5L581 826L585.5 816.5L571.5 755L557 736.5L542 755Z" fill="#004C45"/>
</g>
<path d="M47.0001 509C33.8217 461.627 25.8854 433.842 31.0001 412C67.4153 396.355 81.865 398.164 85.0004 447.5C84.2328 481.805 76.297 494.782 47.0001 509Z" fill="#D06565"/>
<path d="M29.5712 725.5C16.2565 699.141 34.2213 649.648 67.9998 559L510 560.5C523.842 681.861 529.4 741.809 515 805L14.4998 808C9.82726 780.125 24.1883 769.329 53.0712 751C43.0052 747.048 37.3758 741.767 29.5712 725.5Z" fill="#F8D376"/>
<path d="M318 628C275.641 659.489 241.222 660.771 174 646C172.09 652.362 171.511 655.942 176.5 662.5C163.214 664.694 161.429 668.978 164.5 680C158.642 688.427 158.797 692.669 164.5 699.5C161.855 711.304 165.148 711.607 170 713.5C166.228 728.396 171.118 730.174 185 728.5C266.22 800.792 310.781 808.226 388 745" stroke="#D3B66E" stroke-width="3"/>
<path d="M188.441 413.582C160.04 420.793 160.873 419.42 141.269 411.558C109 441.963 102.743 469.163 116.356 509.002C143.108 570.181 230.986 556.043 256.477 536.176C296.422 496.022 257.108 434.002 250.801 428.326C221.165 424.197 212.117 431.383 188.441 413.582Z" fill="#ED6D6D"/>
<mask id="mask1_85_12" style="mask-type:alpha" maskUnits="userSpaceOnUse" x="109" y="411" width="166" height="143">
<path d="M188.441 413.582C160.04 420.793 160.873 419.42 141.269 411.558C109 441.963 102.743 469.163 116.356 509.002C143.108 570.181 230.986 556.043 256.477 536.176C296.422 496.022 257.108 434.002 250.801 428.326C221.165 424.197 212.117 431.383 188.441 413.582Z" fill="#ED6D6D"/>
</mask>
<g mask="url(#mask1_85_12)">
<path d="M103.371 443.037C129.123 437.544 172.953 461.215 181.094 467.045C187.358 462.646 259.869 447.591 300.104 450.068L336.534 554.191L204.807 585.46L109.027 550.518L103.371 443.037Z" fill="#C45C5C"/>
</g>
<path d="M201.455 554.257C181.539 539.61 198.477 502.021 198.264 503.72L199.555 503.907C200.169 509.564 201.704 532.666 201.782 533.835C201.933 532.936 206.737 519.137 208.135 503.839L210.717 504.214C210.238 516.025 211.77 535.97 212.86 535.493C212.86 535.493 217.419 517.05 218.37 505.988L220.307 506.269C222.125 510.683 229.412 549.604 211.406 553.831C210.333 646.874 210 651.5 210 651.5L188 647.5C188 647.5 191.721 615.616 201.455 554.257Z" fill="white"/>
<path d="M201.455 554.257C181.539 539.61 198.477 502.021 198.264 503.72L199.555 503.907C200.169 509.564 201.704 532.666 201.782 533.835C201.933 532.936 206.737 519.137 208.135 503.839L210.717 504.214C210.238 516.025 211.77 535.97 212.86 535.493C212.86 535.493 217.419 517.05 218.37 505.988L220.307 506.269C222.125 510.683 229.412 549.604 211.406 553.831C210.333 646.874 210 651.5 210 651.5L188 647.5C188 647.5 191.721 615.616 201.455 554.257Z" fill="black" fill-opacity="0.2"/>
<path d="M116.043 559.432C99.2889 541.252 123.092 507.588 122.559 509.215L123.79 509.646C123.312 515.315 120.409 538.285 120.262 539.448C120.582 538.595 127.933 525.966 132.225 511.216L134.688 512.078C131.963 523.58 129.659 543.451 130.82 543.19C130.82 543.19 138.816 525.957 141.862 515.28L143.709 515.926C144.651 520.606 144.373 560.202 125.892 560.914C107.076 652.041 108 642 108 642L97 648.391L85.0339 648.391C85.0339 648.391 94.7732 617.804 116.043 559.432Z" fill="white"/>
<path d="M116.043 559.432C99.2889 541.252 123.092 507.588 122.559 509.215L123.79 509.646C123.312 515.315 120.409 538.285 120.262 539.448C120.582 538.595 127.933 525.966 132.225 511.216L134.688 512.078C131.963 523.58 129.659 543.451 130.82 543.19C130.82 543.19 138.816 525.957 141.862 515.28L143.709 515.926C144.651 520.606 144.373 560.202 125.892 560.914C107.076 652.041 108 642 108 642L97 648.391L85.0339 648.391C85.0339 648.391 94.7732 617.804 116.043 559.432Z" fill="black" fill-opacity="0.2"/>
<path d="M470 692L520.5 664C523.424 683.646 523.359 694.924 523.5 715L470 692Z" fill="#004C45"/>
<path d="M68.5008 570.5C53.5007 575.5 14.9999 702 27 719.5C38 732.5 87.1915 742.368 117.001 727.5C120.205 718.246 121.258 713.435 113.001 710C118.025 702.385 119.353 698.115 113.001 690.5C114.808 685.242 115.334 682.08 113.001 675C118.208 669.256 119.179 665.658 117.001 658.5C119.418 649.461 120.077 644.745 113.001 640.5C98.8007 648.671 91.3302 651.794 81.5008 647" stroke="#D3B66E" stroke-width="3"/>
<ellipse cx="127.047" cy="535.242" rx="21.5" ry="28" transform="rotate(12.4822 127.047 535.242)" fill="#CCCCCC"/>
<ellipse cx="363" cy="511.5" rx="52" ry="49.5" fill="#D06565"/>
</svg>
