<svg width="18" height="18" viewBox="0 0 18 18" fill="none" xmlns="http://www.w3.org/2000/svg">
<path d="M0 1.96875V10.4062C0 10.8722 0.377754 11.25 0.84375 11.25H3.65625C4.12225 11.25 4.5 10.8722 4.5 10.4062V1.96875C4.5 1.50275 4.12225 1.125 3.65625 1.125H0.84375C0.377754 1.125 0 1.50275 0 1.96875ZM1.40625 9C1.40625 8.534 1.784 8.15625 2.25 8.15625C2.716 8.15625 3.09375 8.534 3.09375 9C3.09375 9.466 2.716 9.84375 2.25 9.84375C1.784 9.84375 1.40625 9.466 1.40625 9ZM10.9688 18C10.2592 18 9.93217 16.6186 9.77586 15.9681C9.59284 15.2064 9.40359 14.4188 8.88314 13.8974C7.74165 12.7539 7.1428 11.297 5.75012 9.92081C5.71049 9.88164 5.67903 9.83499 5.65756 9.78357C5.63608 9.73214 5.62503 9.67697 5.62504 9.62125V2.10589C5.62504 1.87594 5.80936 1.68831 6.03928 1.68409C6.59584 1.67389 7.3293 1.36491 7.89029 1.11533C9.00664 0.61868 10.396 0.000597656 12.0936 0H12.1936C13.6974 0 15.4759 0.0145195 16.1934 1.04544C16.4885 1.46932 16.5607 1.99586 16.4096 2.61454C16.983 3.21405 17.2907 4.33238 16.9855 5.24271C17.6023 6.06649 17.6585 7.2161 17.3127 8.03654L17.3166 8.04041C17.7347 8.46049 18.003 9.13936 18 9.76999C17.9945 10.8371 17.0804 11.8125 15.9063 11.8125H12.3301C12.587 12.8088 13.5 13.6453 13.5 15.1365C13.5 17.7188 11.8125 18 10.9688 18Z" fill="#A4DCB4"/>
</svg>
